<svg width="62" height="52" viewBox="0 0 62 52" fill="none" xmlns="http://www.w3.org/2000/svg">
<path opacity="0.4" d="M47.1903 52C42.3374 52 38.8232 50.3333 36.6478 47C34.4723 43.6667 33.3846 39.8333 33.3846 35.5C33.3846 33 33.7193 30.25 34.3887 27.25C35.058 24.25 36.3131 21.25 38.1538 18.25C40.1619 15.0833 42.9231 12 46.4372 9C49.9514 5.83334 54.637 2.83334 60.4939 0L62 2.25C58.6532 5.41667 55.9757 8.16666 53.9676 10.5C52.1269 12.8333 50.7045 15 49.7004 17C48.6964 19 48.027 20.8333 47.6923 22.5C47.525 24.1667 47.4413 25.9167 47.4413 27.75C47.4413 29.0833 47.8596 30.0833 48.6964 30.75C49.5331 31.25 50.4534 31.9167 51.4575 32.75C52.9636 33.75 54.3023 34.75 55.4737 35.75C56.8124 36.5833 57.4818 38.4167 57.4818 41.25C57.4818 44.25 56.4777 46.8333 54.4696 49C52.4615 51 50.0351 52 47.1903 52ZM14.0567 52C9.20378 52 5.60594 50.3333 3.26316 47C1.08772 43.6667 0 39.8333 0 35.5C0 33 0.334683 30.3333 1.00405 27.5C1.67341 24.5 3.01215 21.4167 5.02024 18.25C7.02834 15.0833 9.78947 12 13.3036 9C16.8178 5.83334 21.5034 2.83334 27.3603 0L28.8664 2.25C25.5196 5.41667 22.8421 8.16666 20.834 10.5C18.9933 12.8333 17.5709 15 16.5668 17C15.5628 19 14.8934 20.8333 14.5587 22.5C14.3914 24.1667 14.3077 25.9167 14.3077 27.75C14.3077 29.0833 14.6424 30.0833 15.3117 30.75C16.1484 31.4167 17.0688 32 18.0729 32.5C19.4116 33.3333 20.7503 34.3333 22.0891 35.5C23.5951 36.5 24.3482 38.4167 24.3482 41.25C24.3482 44.25 23.3441 46.8333 21.336 49C19.4953 51 17.0688 52 14.0567 52Z" fill="#94ABD0"/>
</svg>
