<svg width="22" height="22" viewBox="0 0 22 22" fill="none" xmlns="http://www.w3.org/2000/svg">
<path d="M16.2603 0.919189H5.73974C2.83325 0.919189 0.46875 3.28439 0.46875 6.19174V15.8193C0.46875 18.7267 2.83325 21.0919 5.73974 21.0919H16.2603C19.1668 21.0919 21.5313 18.7267 21.5313 15.8193V6.19174C21.5313 3.28439 19.1668 0.919189 16.2603 0.919189ZM2.32819 6.19174C2.32819 4.3103 3.85886 2.77918 5.73974 2.77918H16.2603C18.1412 2.77918 19.6718 4.3103 19.6718 6.19174V15.8193C19.6718 17.7008 18.1412 19.2319 16.2603 19.2319H5.73974C3.85886 19.2319 2.32819 17.7008 2.32819 15.8193V6.19174Z" fill="white"/>
<path d="M11.0006 15.9091C13.7034 15.9091 15.9035 13.7095 15.9035 11.0047C15.9035 8.29992 13.7046 6.10034 11.0006 6.10034C8.29659 6.10034 6.09766 8.29992 6.09766 11.0047C6.09766 13.7095 8.29659 15.9091 11.0006 15.9091ZM11.0006 7.96152C12.679 7.96152 14.0441 9.32702 14.0441 11.0059C14.0441 12.6848 12.679 14.0503 11.0006 14.0503C9.3222 14.0503 7.9571 12.6848 7.9571 11.0059C7.9571 9.32702 9.3222 7.96152 11.0006 7.96152Z" fill="white"/>
<path d="M16.3562 6.89234C17.084 6.89234 17.6772 6.30015 17.6772 5.57093C17.6772 4.84171 17.0852 4.24951 16.3562 4.24951C15.6272 4.24951 15.0352 4.84171 15.0352 5.57093C15.0352 6.30015 15.6272 6.89234 16.3562 6.89234Z" fill="white"/>
</svg>
