<svg width="34" height="34" viewBox="0 0 34 34" fill="none" xmlns="http://www.w3.org/2000/svg">
<path d="M17.0387 0H16.9613C7.59383 0 0 7.59606 0 16.9663V17.0437C0 26.414 7.59383 34.01 16.9613 34.01H17.0387C26.4062 34.01 34 26.414 34 17.0437V16.9663C34 7.59606 26.4062 0 17.0387 0Z" fill="#A4C0E0"/>
<path d="M22.2603 6.91919H11.7397C8.83325 6.91919 6.46875 9.28439 6.46875 12.1917V21.8193C6.46875 24.7267 8.83325 27.0919 11.7397 27.0919H22.2603C25.1668 27.0919 27.5313 24.7267 27.5313 21.8193V12.1917C27.5313 9.28439 25.1668 6.91919 22.2603 6.91919ZM8.32819 12.1917C8.32819 10.3103 9.85886 8.77918 11.7397 8.77918H22.2603C24.1412 8.77918 25.6718 10.3103 25.6718 12.1917V21.8193C25.6718 23.7008 24.1412 25.2319 22.2603 25.2319H11.7397C9.85886 25.2319 8.32819 23.7008 8.32819 21.8193V12.1917Z" fill="white"/>
<path d="M17.0006 21.9091C19.7034 21.9091 21.9035 19.7095 21.9035 17.0047C21.9035 14.2999 19.7046 12.1003 17.0006 12.1003C14.2966 12.1003 12.0977 14.2999 12.0977 17.0047C12.0977 19.7095 14.2966 21.9091 17.0006 21.9091ZM17.0006 13.9615C18.679 13.9615 20.0441 15.327 20.0441 17.0059C20.0441 18.6848 18.679 20.0503 17.0006 20.0503C15.3222 20.0503 13.9571 18.6848 13.9571 17.0059C13.9571 15.327 15.3222 13.9615 17.0006 13.9615Z" fill="white"/>
<path d="M22.3562 12.8923C23.084 12.8923 23.6772 12.3001 23.6772 11.5709C23.6772 10.8417 23.0852 10.2495 22.3562 10.2495C21.6272 10.2495 21.0352 10.8417 21.0352 11.5709C21.0352 12.3001 21.6272 12.8923 22.3562 12.8923Z" fill="white"/>
</svg>
