<svg width="34" height="35" viewBox="0 0 34 35" fill="none" xmlns="http://www.w3.org/2000/svg">
<path d="M17.0246 0H16.9472C7.58753 0 0 7.81717 0 17.4601V17.5399C0 27.1828 7.58753 35 16.9472 35H17.0246C26.3843 35 33.9718 27.1828 33.9718 17.5399V17.4601C33.9718 7.81717 26.3843 0 17.0246 0Z" fill="#A4C0E0"/>
<path d="M6.43527 16.9036C6.48288 16.8791 6.53051 16.8558 6.57693 16.8337C7.38388 16.4487 8.20155 16.0882 9.01803 15.7277C9.06206 15.7277 9.13584 15.6749 9.17749 15.6578C9.24057 15.6296 9.30367 15.6026 9.36675 15.5744L9.72976 15.4138C9.97256 15.3071 10.2142 15.2004 10.457 15.0937C10.9414 14.8804 11.4258 14.667 11.9102 14.4524C12.879 14.0257 13.849 13.5977 14.8179 13.171C15.7867 12.7443 16.7567 12.3163 17.7255 11.8896C18.6943 11.4629 19.6643 11.0349 20.6332 10.6082C21.602 10.1815 22.572 9.75352 23.5408 9.3268C23.7563 9.23115 23.9895 9.08891 24.2204 9.04722C24.4144 9.01166 24.6037 8.94299 24.7989 8.90498C25.169 8.83263 25.5773 8.8032 25.9319 8.96139C26.0545 9.01657 26.1676 9.09382 26.2616 9.19069C26.7115 9.6493 26.6484 10.4022 26.5532 11.0472C25.8903 15.5425 25.2273 20.0391 24.5632 24.5344C24.4727 25.1512 24.349 25.828 23.8765 26.218C23.4765 26.5478 22.9076 26.5846 22.4137 26.4448C21.9198 26.3038 21.4842 26.0083 21.0569 25.7177C19.2847 24.5086 17.5113 23.2996 15.7391 22.0905C15.3177 21.8036 14.8488 21.4284 14.8536 20.9072C14.856 20.5933 15.038 20.3137 15.2237 20.0648C16.7638 17.995 18.9859 16.5725 20.6391 14.5983C20.8724 14.32 21.0557 13.8172 20.7355 13.6566C20.5451 13.5609 20.3261 13.6909 20.1523 13.8148C17.9671 15.3782 15.7831 16.9429 13.5979 18.5063C12.885 19.0164 12.1375 19.5412 11.2782 19.6663C10.5093 19.7791 9.73572 19.5584 8.99184 19.3328C8.36818 19.1439 7.74569 18.9502 7.12559 18.7503C6.79591 18.6448 6.45551 18.5308 6.2008 18.2917C5.9461 18.0526 5.79973 17.6504 5.95326 17.3316C6.04967 17.1317 6.23653 17.0054 6.43292 16.9024L6.43527 16.9036Z" fill="#FEFFFC"/>
</svg>
