<svg width="22" height="19" viewBox="0 0 22 19" fill="none" xmlns="http://www.w3.org/2000/svg">
<path d="M1.43527 8.90361C1.48288 8.87909 1.53051 8.85579 1.57693 8.83372C2.38388 8.44869 3.20155 8.08818 4.01803 7.72767C4.06206 7.72767 4.13584 7.67494 4.17749 7.65777C4.24057 7.62957 4.30367 7.60259 4.36675 7.57439L4.72976 7.41376C4.97256 7.30708 5.21416 7.20039 5.45696 7.09371C5.94137 6.88035 6.42578 6.66699 6.91019 6.4524C7.87901 6.02568 8.84904 5.59772 9.81787 5.171C10.7867 4.74428 11.7567 4.31632 12.7255 3.8896C13.6943 3.46288 14.6643 3.03492 15.6332 2.6082C16.602 2.18148 17.572 1.75352 18.5408 1.3268C18.7563 1.23115 18.9895 1.08891 19.2204 1.04722C19.4144 1.01166 19.6037 0.942994 19.7989 0.904981C20.169 0.832634 20.5773 0.803204 20.9319 0.961387C21.0545 1.01657 21.1676 1.09382 21.2616 1.19069C21.7115 1.6493 21.6484 2.40219 21.5532 3.04719C20.8903 7.54251 20.2273 12.0391 19.5632 16.5344C19.4727 17.1512 19.349 17.828 18.8765 18.218C18.4765 18.5478 17.9076 18.5846 17.4137 18.4448C16.9198 18.3038 16.4842 18.0083 16.0569 17.7177C14.2847 16.5086 12.5113 15.2996 10.7391 14.0905C10.3177 13.8036 9.84882 13.4284 9.85358 12.9072C9.85596 12.5933 10.038 12.3137 10.2237 12.0648C11.7638 9.99495 13.9859 8.57253 15.6391 6.59832C15.8724 6.31997 16.0557 5.81722 15.7355 5.65658C15.5451 5.56094 15.3261 5.69092 15.1523 5.81477C12.9671 7.3782 10.7831 8.94285 8.59791 10.5063C7.88498 11.0164 7.13754 11.5412 6.27821 11.6663C5.50934 11.7791 4.73572 11.5584 3.99184 11.3328C3.36818 11.1439 2.74569 10.9502 2.12559 10.7503C1.79591 10.6448 1.45551 10.5308 1.2008 10.2917C0.946102 10.0526 0.799727 9.65038 0.953263 9.33156C1.04967 9.13169 1.23653 9.00539 1.43292 8.90239L1.43527 8.90361Z" fill="#FEFFFC"/>
</svg>
