<svg width="34" height="34" viewBox="0 0 34 34" fill="none" xmlns="http://www.w3.org/2000/svg">
<path d="M17.0387 0H16.9613C7.59383 0 0 7.59606 0 16.9663V17.0437C0 26.4139 7.59383 34.01 16.9613 34.01H17.0387C26.4062 34.01 34 26.4139 34 17.0437V16.9663C34 7.59606 26.4062 0 17.0387 0Z" fill="#A4C0E0"/>
<path d="M20.3127 21.979C15.9613 21.979 12.4211 18.4365 12.4199 14.0838C12.4211 12.9805 13.3193 12.0833 14.4199 12.0833C14.5331 12.0833 14.6451 12.0928 14.7523 12.1118C14.9881 12.1512 15.2121 12.231 15.4181 12.3513C15.4479 12.3692 15.4682 12.3978 15.4729 12.4312L15.9327 15.3302C15.9387 15.3647 15.928 15.3981 15.9053 15.4231C15.6516 15.7043 15.3276 15.9069 14.9667 16.0082L14.7928 16.057L14.8583 16.225C15.4515 17.7359 16.6594 18.9429 18.171 19.5387L18.3389 19.6054L18.3878 19.4315C18.489 19.0704 18.6915 18.7463 18.9726 18.4925C18.9929 18.4735 19.0203 18.4639 19.0477 18.4639C19.0536 18.4639 19.0596 18.4639 19.0667 18.4651L21.9649 18.9251C21.9994 18.931 22.028 18.9501 22.0459 18.9799C22.165 19.186 22.2448 19.4112 22.2853 19.6471C22.3044 19.752 22.3127 19.8628 22.3127 19.9784C22.3127 21.0805 21.4158 21.9778 20.3127 21.979Z" fill="#FDFDFD"/>
<path d="M28.0299 16.0499C27.7952 13.3976 26.5802 10.9371 24.6088 9.12235C22.6254 7.29692 20.0525 6.29126 17.3616 6.29126C11.4557 6.29126 6.65046 11.0979 6.65046 17.0055C6.65046 18.9883 7.19721 20.9197 8.23235 22.6022L5.92383 27.7139L13.3151 26.9263C14.6004 27.4529 15.9608 27.7198 17.3604 27.7198C17.7285 27.7198 18.1061 27.7008 18.4849 27.6615C18.8184 27.6257 19.1555 27.5733 19.4867 27.5066C24.4325 26.5069 28.043 22.116 28.0715 17.0627V17.0055C28.0715 16.6838 28.0572 16.3621 28.0287 16.0499H28.0299ZM13.5998 24.6826L9.5105 25.1187L10.7315 22.4127L10.4873 22.0851C10.4694 22.0612 10.4515 22.0374 10.4313 22.01C9.37113 20.5456 8.81126 18.8155 8.81126 17.0067C8.81126 12.2906 12.6469 8.4539 17.3616 8.4539C21.7785 8.4539 25.5224 11.901 25.8833 16.3014C25.9024 16.5373 25.9131 16.7744 25.9131 17.0079C25.9131 17.0747 25.9119 17.1402 25.9107 17.2105C25.8202 21.1557 23.065 24.5063 19.2103 25.3594C18.9161 25.4249 18.6147 25.475 18.3145 25.5072C18.0024 25.5429 17.682 25.5608 17.364 25.5608C16.2312 25.5608 15.1305 25.3415 14.0906 24.9078C13.9751 24.8613 13.8619 24.8113 13.7559 24.7601L13.601 24.685L13.5998 24.6826Z" fill="#FDFDFD"/>
</svg>
