<svg width="24" height="22" viewBox="0 0 24 22" fill="none" xmlns="http://www.w3.org/2000/svg">
<path d="M15.3127 15.979C10.9613 15.979 7.42111 12.4365 7.41992 8.08384C7.42111 6.98048 8.31927 6.08325 9.41993 6.08325C9.53309 6.08325 9.64505 6.09278 9.75226 6.11185C9.98811 6.15117 10.2121 6.231 10.4181 6.35135C10.4479 6.36922 10.4682 6.39782 10.4729 6.43118L10.9327 9.33019C10.9387 9.36474 10.928 9.3981 10.9053 9.42313C10.6516 9.70433 10.3276 9.90689 9.96668 10.0082L9.79277 10.057L9.85827 10.225C10.4515 11.7359 11.6594 12.9429 13.171 13.5387L13.3389 13.6054L13.3878 13.4315C13.489 13.0704 13.6915 12.7463 13.9726 12.4925C13.9929 12.4735 14.0203 12.4639 14.0477 12.4639C14.0536 12.4639 14.0596 12.4639 14.0667 12.4651L16.9649 12.9251C16.9994 12.931 17.028 12.9501 17.0459 12.9799C17.165 13.186 17.2448 13.4112 17.2853 13.6471C17.3044 13.752 17.3127 13.8628 17.3127 13.9784C17.3127 15.0805 16.4158 15.9778 15.3127 15.979Z" fill="#FDFDFD"/>
<path d="M23.0299 10.0499C22.7952 7.39758 21.5802 4.93706 19.6088 3.12235C17.6254 1.29692 15.0525 0.29126 12.3616 0.29126C6.45569 0.29126 1.65046 5.09791 1.65046 11.0055C1.65046 12.9883 2.19721 14.9197 3.23235 16.6022L0.923828 21.7139L8.31514 20.9263C9.60043 21.4529 10.9608 21.7198 12.3604 21.7198C12.7285 21.7198 13.1061 21.7008 13.4849 21.6615C13.8184 21.6257 14.1555 21.5733 14.4867 21.5066C19.4325 20.5069 23.043 16.116 23.0715 11.0627V11.0055C23.0715 10.6838 23.0572 10.3621 23.0287 10.0499H23.0299ZM8.59983 18.6826L4.5105 19.1187L5.73146 16.4127L5.48727 16.0851C5.4694 16.0612 5.45153 16.0374 5.43128 16.01C4.37113 14.5456 3.81126 12.8155 3.81126 11.0067C3.81126 6.29064 7.64688 2.4539 12.3616 2.4539C16.7785 2.4539 20.5224 5.90101 20.8833 10.3014C20.9024 10.5373 20.9131 10.7744 20.9131 11.0079C20.9131 11.0747 20.9119 11.1402 20.9107 11.2105C20.8202 15.1557 18.065 18.5063 14.2103 19.3594C13.9161 19.4249 13.6147 19.475 13.3145 19.5072C13.0024 19.5429 12.682 19.5608 12.364 19.5608C11.2312 19.5608 10.1305 19.3415 9.0906 18.9078C8.97506 18.8613 8.86189 18.8113 8.75587 18.7601L8.60103 18.685L8.59983 18.6826Z" fill="#FDFDFD"/>
</svg>
