<svg width="34" height="34" fill="none" xmlns="http://www.w3.org/2000/svg"><g clip-path="url(#clip0_27_918)"><path d="M34 17c0-9.389-7.611-17-17-17S0 7.611 0 17c0 7.972 5.489 14.662 12.893 16.5V22.194H9.389V17h3.505v-2.239c0-5.786 2.62-8.468 8.3-8.468 1.077 0 2.935.212 3.696.423v4.709c-.401-.043-1.098-.064-1.964-.064-2.788 0-3.865 1.056-3.865 3.802V17h5.553l-.954 5.195h-4.6v11.68C27.478 32.86 34 25.693 34 17z" fill="#A4C0E0"/><path d="M23.658 22.195L24.612 17h-5.553v-1.837c0-2.745 1.077-3.802 3.864-3.802.866 0 1.563.022 1.964.064v-4.71c-.76-.21-2.618-.422-3.695-.422-5.681 0-8.3 2.682-8.3 8.468v2.24H9.387v5.194h3.505V33.5a17.03 17.03 0 006.166.376v-11.68h4.6z" fill="#fff"/></g><defs><clipPath id="clip0_27_918"><path fill="#fff" d="M0 0h34v34H0z"/></clipPath></defs></svg>