<svg width="34" height="34" fill="none" xmlns="http://www.w3.org/2000/svg"><path d="M17.039 0h-.078C7.594 0 0 7.596 0 16.966v.078c0 9.37 7.594 16.966 16.961 16.966h.078C26.406 34.01 34 26.414 34 17.044v-.078C34 7.596 26.406 0 17.039 0z" fill="#A4C0E0"/><path d="M22.26 6.92H11.74a5.278 5.278 0 00-5.271 5.272v9.627a5.278 5.278 0 005.27 5.273H22.26a5.278 5.278 0 005.271-5.273v-9.627a5.278 5.278 0 00-5.27-5.273zM8.328 12.191a3.416 3.416 0 013.412-3.413h10.52a3.416 3.416 0 013.412 3.413v9.627a3.416 3.416 0 01-3.412 3.413H11.74a3.416 3.416 0 01-3.412-3.413v-9.627z" fill="#fff"/><path d="M17 21.91a4.91 4.91 0 004.904-4.905A4.909 4.909 0 0017 12.1a4.909 4.909 0 00-4.903 4.905A4.909 4.909 0 0017 21.909zm0-7.949a3.047 3.047 0 013.044 3.045 3.047 3.047 0 01-3.043 3.044 3.047 3.047 0 01-3.044-3.044 3.047 3.047 0 013.044-3.045zm5.356-1.069a1.322 1.322 0 10-.002-2.642 1.322 1.322 0 00.002 2.642z" fill="#fff"/></svg>