<svg width="34" height="35" fill="none" xmlns="http://www.w3.org/2000/svg"><path d="M17.025 0h-.078C7.587 0 0 7.817 0 17.46v.08C0 27.183 7.588 35 16.947 35h.078c9.36 0 16.947-7.817 16.947-17.46v-.08C33.972 7.817 26.384 0 17.025 0z" fill="#A4C0E0"/><path d="M6.435 16.904c.048-.025.096-.048.142-.07a90.389 90.389 0 012.441-1.106c.044 0 .118-.053.16-.07l.189-.084.363-.16.727-.32c.484-.214.969-.427 1.453-.642l2.908-1.281 2.908-1.281 2.907-1.282 2.908-1.281c.215-.096.448-.238.68-.28.193-.035.383-.104.578-.142.37-.072.778-.102 1.133.056.123.056.236.133.33.23.45.458.386 1.211.291 1.856l-1.99 13.487c-.09.617-.214 1.294-.686 1.684-.4.33-.97.367-1.463.227-.494-.141-.93-.437-1.357-.727l-5.318-3.628c-.421-.286-.89-.662-.885-1.183.002-.314.184-.593.37-.842 1.54-2.07 3.762-3.492 5.415-5.467.233-.278.417-.78.096-.941-.19-.096-.409.034-.583.158l-6.554 4.691c-.713.51-1.46 1.035-2.32 1.16-.769.113-1.542-.108-2.286-.333-.624-.19-1.246-.383-1.866-.583-.33-.105-.67-.22-.925-.458-.255-.24-.401-.642-.248-.96.097-.2.284-.327.48-.43l.002.002z" fill="#FEFFFC"/></svg>