<svg width="34" height="34" fill="none" xmlns="http://www.w3.org/2000/svg"><path d="M17.039 0h-.078C7.594 0 0 7.596 0 16.966v.078c0 9.37 7.594 16.966 16.961 16.966h.078C26.406 34.01 34 26.414 34 17.044v-.078C34 7.596 26.406 0 17.039 0z" fill="#A4C0E0"/><path d="M20.313 21.979c-4.352 0-7.892-3.543-7.893-7.895a2.005 2.005 0 012.332-1.972c.236.04.46.119.666.24a.11.11 0 01.055.08l.46 2.898a.11.11 0 01-.028.093 1.987 1.987 0 01-.938.585l-.174.049.065.168a5.888 5.888 0 003.313 3.314l.168.066.049-.174c.101-.36.303-.685.585-.939a.11.11 0 01.075-.028l.019.001 2.898.46a.115.115 0 01.08.055 2.009 2.009 0 01.268.998c0 1.102-.897 2-2 2.001z" fill="#FDFDFD"/><path d="M28.03 16.05a10.682 10.682 0 00-3.421-6.928 10.674 10.674 0 00-7.247-2.83c-5.906 0-10.712 4.806-10.712 10.713 0 1.983.547 3.915 1.582 5.597l-2.308 5.112 7.391-.788c1.285.527 2.646.794 4.045.794.369 0 .746-.02 1.125-.058.333-.036.67-.089 1.002-.155 4.946-1 8.556-5.391 8.585-10.444v-.057c0-.322-.015-.644-.043-.956zM13.6 24.683l-4.09.436 1.222-2.706-.245-.328-.056-.075a8.48 8.48 0 01-1.62-5.003c0-4.716 3.836-8.553 8.55-8.553 4.418 0 8.161 3.447 8.522 7.847.02.236.03.473.03.707l-.002.203a8.53 8.53 0 01-7.597 8.296 8.457 8.457 0 01-4.559-.747l-.154-.075-.001-.002z" fill="#FDFDFD"/></svg>