<svg width="62" height="52" fill="none" xmlns="http://www.w3.org/2000/svg"><path opacity=".4" d="M47.19 52c-4.853 0-8.367-1.667-10.542-5-2.176-3.333-3.263-7.167-3.263-11.5 0-2.5.334-5.25 1.004-8.25.669-3 1.924-6 3.765-9 2.008-3.167 4.77-6.25 8.283-9.25 3.514-3.167 8.2-6.167 14.057-9L62 2.25c-3.347 3.167-6.024 5.917-8.032 8.25-1.841 2.333-3.264 4.5-4.268 6.5s-1.673 3.833-2.008 5.5a52.606 52.606 0 00-.25 5.25c0 1.333.418 2.333 1.254 3 .837.5 1.757 1.167 2.762 2 1.506 1 2.844 2 4.016 3 1.338.833 2.008 2.667 2.008 5.5 0 3-1.004 5.583-3.012 7.75-2.008 2-4.435 3-7.28 3zm-33.133 0c-4.853 0-8.451-1.667-10.794-5C1.088 43.667 0 39.833 0 35.5c0-2.5.335-5.167 1.004-8 .67-3 2.008-6.083 4.016-9.25S9.79 12 13.304 9c3.514-3.167 8.2-6.167 14.056-9l1.506 2.25c-3.346 3.167-6.024 5.917-8.032 8.25-1.84 2.333-3.263 4.5-4.267 6.5-1.004 2-1.674 3.833-2.008 5.5a52.606 52.606 0 00-.251 5.25c0 1.333.334 2.333 1.004 3 .836.667 1.757 1.25 2.76 1.75a31.39 31.39 0 014.017 3c1.506 1 2.26 2.917 2.26 5.75 0 3-1.005 5.583-3.013 7.75-1.84 2-4.267 3-7.28 3z" fill="#94ABD0"/></svg>